<svg width="224" height="196" viewBox="0 0 224 196" fill="none" xmlns="http://www.w3.org/2000/svg">
<path d="M132.659 165.64C132.659 168.115 130.393 170.122 127.599 170.122H96.4902C93.6961 170.122 91.4307 168.116 91.4307 165.64H90.5536H6C6 171.69 11.2543 176.595 17.736 176.595H206.356C212.837 176.595 218.092 171.69 218.092 165.64H132.659Z" fill="#004E9B"/>
<path d="M192.386 57.199H168.374C166.249 57.199 164.609 59.013 164.886 61.057C165.116 62.755 166.608 64.025 168.374 64.025H192.386C193.773 64.025 194.899 65.116 194.899 66.463V152.377H29.1907V66.463C29.1907 65.117 30.3161 64.025 31.7034 64.025H55.7145C57.48 64.025 58.9724 62.755 59.2022 61.057C59.4795 59.013 57.8397 57.199 55.7145 57.199H31.7034C26.4306 57.199 22.1555 61.347 22.1555 66.463V165.64H201.935V66.463C201.934 61.346 197.659 57.199 192.386 57.199Z" fill="#0069D1"/>
<path d="M40.0929 179.609H24.8547C23.3634 179.609 22.1544 178.436 22.1544 176.989V176.595H42.7932V176.989C42.7932 178.436 41.5843 179.609 40.0929 179.609Z" fill="#004E9B"/>
<path d="M183.996 179.609H199.234C200.725 179.609 201.934 178.436 201.934 176.989V176.595H181.295V176.989C181.294 178.436 182.504 179.609 183.996 179.609Z" fill="#004E9B"/>
<path d="M154.954 43.701H69.1336C67.534 43.701 66.1828 44.851 65.9736 46.39L50.2799 162.145C50.0284 163.997 51.5146 165.641 53.4399 165.641H112.044H170.648C172.573 165.641 174.058 163.997 173.808 162.145L158.114 46.39C157.906 44.851 156.553 43.701 154.954 43.701Z" fill="#0069D1"/>
<path d="M88.6582 64.025C90.601 64.025 92.1759 62.4969 92.1759 60.612C92.1759 58.727 90.601 57.199 88.6582 57.199C86.7155 57.199 85.1406 58.727 85.1406 60.612C85.1406 62.4969 86.7155 64.025 88.6582 64.025Z" fill="white"/>
<path d="M135.43 64.025C137.373 64.025 138.948 62.4969 138.948 60.612C138.948 58.727 137.373 57.199 135.43 57.199C133.488 57.199 131.913 58.727 131.913 60.612C131.913 62.4969 133.488 64.025 135.43 64.025Z" fill="white"/>
<path d="M88.6582 61.104V39.691C88.6582 27.159 99.1286 17 112.045 17C124.961 17 135.431 27.159 135.431 39.691V60.612" stroke="#004E9B" stroke-width="2.5" stroke-miterlimit="10" stroke-linecap="round"/>
<path d="M112.045 123.947C123.017 123.947 131.913 115.316 131.913 104.67C131.913 94.0236 123.017 85.393 112.045 85.393C101.072 85.393 92.1769 94.0236 92.1769 104.67C92.1769 115.316 101.072 123.947 112.045 123.947Z" fill="white"/>
<path d="M120.521 112.423H103.568L101.196 102.284H122.892L120.521 112.423Z" fill="#004E9B"/>
<path d="M118.086 105.674H106.002V99.719C106.002 96.905 108.353 94.623 111.254 94.623H112.834C115.734 94.623 118.086 96.904 118.086 99.719V105.674Z" stroke="#004E9B" stroke-width="2" stroke-miterlimit="10" stroke-linecap="round"/>
</svg>
